<svg viewBox="0 0 100 100" xmlns="http://www.w3.org/2000/svg"><path d="M90 58.405a40 40 0 1 0-76.422 16.532h72.844A39.843 39.843 0 0 0 90 58.405z" fill="#f0f2ff"/><path d="M11 74.937h78m-82.5 0H9m82 0h2.5" fill="none" stroke="#4550e5" stroke-linecap="round" stroke-linejoin="round"/><path d="M64.002 85.407h7.157m-11.331 0h1.789m-4.771 0h.596m-23.283-3.5h7.157m-11.332 0h1.789m-4.771 0h.597m17.747 11h7.156m-11.331 0h1.789m-4.771 0h.596" fill="none" stroke="#4550e5" stroke-linecap="round"/><path d="M56.589 89.989a2.1 2.1 0 0 0 1.8-2.163 65.555 65.555 0 0 0-4.221-21.151 2.1 2.1 0 0 0-3.934 1.472A62.184 62.184 0 0 1 54.2 87.994a2.1 2.1 0 0 0 2.182 2.014 2.074 2.074 0 0 0 .207-.019z" fill="#d6daff" stroke="#4550e5" stroke-linecap="round" stroke-linejoin="round"/><path d="M52.156 74.15a8.869 8.869 0 0 0 2.149-.416 8.994 8.994 0 0 0 1.875-.834m-3.032 5.747a8.889 8.889 0 0 0 2.2-.2 9.022 9.022 0 0 0 1.929-.641m-3.496 4.913a8.488 8.488 0 0 0 2.728-.16 9.2 9.2 0 0 0 1.425-.424" fill="none" stroke="#4550e5" stroke-linecap="round" stroke-linejoin="round"/><path d="M56.589 89.989a2.1 2.1 0 0 0 1.8-2.163 65.555 65.555 0 0 0-4.221-21.151 2.1 2.1 0 0 0-3.934 1.472A62.184 62.184 0 0 1 54.2 87.994a2.1 2.1 0 0 0 2.182 2.014 2.074 2.074 0 0 0 .207-.019z" fill="none" stroke="#4550e5" stroke-linecap="round" stroke-linejoin="round"/><path d="M39.415 89.989a2.1 2.1 0 0 1-1.8-2.163 65.57 65.57 0 0 1 4.222-21.151 2.1 2.1 0 0 1 3.934 1.472 62.151 62.151 0 0 0-3.959 19.847 2.1 2.1 0 0 1-2.182 2.014 2.067 2.067 0 0 1-.215-.019z" fill="#d6daff" stroke="#4550e5" stroke-linecap="round" stroke-linejoin="round"/><path d="M43.849 74.15a8.869 8.869 0 0 1-2.149-.416 8.979 8.979 0 0 1-1.876-.838m3.032 5.751a8.877 8.877 0 0 1-2.194-.2 9.05 9.05 0 0 1-1.93-.641m3.492 4.913a8.494 8.494 0 0 1-2.729-.16 9.234 9.234 0 0 1-1.425-.424" fill="none" stroke="#4550e5" stroke-linecap="round" stroke-linejoin="round"/><path d="M39.415 89.989a2.1 2.1 0 0 1-1.8-2.163 65.57 65.57 0 0 1 4.222-21.151 2.1 2.1 0 0 1 3.934 1.472 62.151 62.151 0 0 0-3.959 19.847 2.1 2.1 0 0 1-2.182 2.014 2.067 2.067 0 0 1-.215-.019z" fill="none" stroke="#4550e5" stroke-linecap="round" stroke-linejoin="round"/><path d="M61.767 75.058a.494.494 0 0 1-.736.019 5.2 5.2 0 1 1 8.061-.633.5.5 0 0 1-.73.1l-1.138-.972a.5.5 0 0 1-.1-.637 2.723 2.723 0 1 0-4.385.345.5.5 0 0 1 0 .644z" fill="#fff"/><path d="M61.767 75.058a.494.494 0 0 1-.736.019 5.2 5.2 0 1 1 8.061-.633.5.5 0 0 1-.73.1l-1.138-.972a.5.5 0 0 1-.1-.637 2.723 2.723 0 1 0-4.385.345.5.5 0 0 1 0 .644z" fill="none" stroke="#4550e5" stroke-linecap="round" stroke-linejoin="round"/><path d="M49.359 49.408c.058 0 .117 0 .176.012 5.58.607 16.328 5.14 17.071 17.954a2.1 2.1 0 1 1-4.193.244c-.72-12.43-12.824-13.964-13.338-14.024a2.1 2.1 0 0 1 .284-4.186z" fill="#d6daff" stroke="#4550e5" stroke-linecap="round" stroke-linejoin="round"/><path d="M65.932 63.107a3.97 3.97 0 0 1-4.143.779m.886-7.268a3.966 3.966 0 0 1-2.8 3.238" fill="none" stroke="#4550e5" stroke-linecap="round" stroke-linejoin="round"/><path d="M40.835 50.121a3 3 0 0 1-2.384-1.179 11.748 11.748 0 1 1 18.677 0 3 3 0 0 1-2.385 1.177z" fill="#d6daff"/><path d="M38.868 49.386a3.031 3.031 0 0 1-.417-.444A11.748 11.748 0 0 1 55.4 32.862z" fill="#fff"/><path d="M68.503 45.853a5.946 5.946 0 1 0 11.892 0 5.946 5.946 0 1 0-11.892 0z" fill="#d6daff"/><path d="M68.503 45.853a5.946 5.946 0 1 0 11.892 0 5.946 5.946 0 1 0-11.892 0z" fill="none" stroke="#4550e5" stroke-linecap="round" stroke-linejoin="round"/><path d="M73.788 43.871a1.322 1.322 0 0 0-1.321-1.321h-2.96a5.94 5.94 0 0 0 1.638 8.25v-4.286a1.321 1.321 0 0 1 1.322-1.321 1.322 1.322 0 0 0 1.321-1.322z" fill="#fff"/><path d="M73.788 43.871h0a1.322 1.322 0 0 0-1.321-1.321h-2.96a5.94 5.94 0 0 0 1.638 8.25v-4.286a1.321 1.321 0 0 1 1.322-1.321h0a1.322 1.322 0 0 0 1.321-1.322z" fill="none" stroke="#4550e5" stroke-linecap="round" stroke-linejoin="round"/><path d="M80.4 45.853a5.938 5.938 0 0 0-2.643-4.942v2.02a.94.94 0 0 1-.941.94.941.941 0 0 0-.941.941v3.4a.942.942 0 0 0 .941.941.94.94 0 0 1 .941.94v.7a5.938 5.938 0 0 0 2.643-4.94z" fill="#fff"/><path d="M80.4 45.853a5.938 5.938 0 0 0-2.643-4.942v2.02a.94.94 0 0 1-.941.94h0a.941.941 0 0 0-.941.941v3.4a.942.942 0 0 0 .941.941.94.94 0 0 1 .941.94v.7a5.938 5.938 0 0 0 2.643-4.94z" fill="none" stroke="#4550e5" stroke-linecap="round" stroke-linejoin="round"/><path d="M64 88.5c0 2.131-2.16 1.93-4.824 1.93s-4.825.2-4.825-1.93 2.16-3.86 4.825-3.86S64 86.368 64 88.5z" fill="#fff" stroke="#4550e5" stroke-linecap="round" stroke-linejoin="round"/><path d="M28.354 29.292a.494.494 0 0 1 .735-.038 5.2 5.2 0 1 1-8.043.837.5.5 0 0 1 .727-.115l1.163.944a.5.5 0 0 1 .116.633 2.724 2.724 0 1 0 4.375-.455.493.493 0 0 1-.017-.643z" fill="#fff"/><path d="M28.354 29.292a.494.494 0 0 1 .735-.038 5.2 5.2 0 1 1-8.043.837.5.5 0 0 1 .727-.115l1.163.944a.5.5 0 0 1 .116.633 2.724 2.724 0 1 0 4.375-.455.493.493 0 0 1-.017-.643zm12.481 20.829a3 3 0 0 1-2.384-1.179 11.748 11.748 0 1 1 18.677 0 3 3 0 0 1-2.385 1.177z" fill="none" stroke="#4550e5" stroke-linecap="round" stroke-linejoin="round"/><path d="M41.405 54.621c-.059 0-.118 0-.177-.007-5.593-.467-16.452-4.728-17.519-17.519a2.1 2.1 0 0 1 4.186-.349c1.034 12.408 13.172 13.636 13.688 13.683a2.1 2.1 0 0 1-.178 4.192z" fill="#d6daff" stroke="#4550e5" stroke-linecap="round" stroke-linejoin="round"/><path d="M39.39 35.721h16.8v12h-16.8z" fill="#d6daff"/><path d="M46.59 47.721h2.4v2.4h-2.4z" fill="#d6daff" stroke="#4550e5" stroke-linecap="round" stroke-linejoin="round"/><path d="M41.102 50.121h13.376v14.912H41.102zm13.376 14.912a6.688 6.688 0 1 1-13.376 0z" fill="#fff" stroke="#4550e5" stroke-linecap="round" stroke-linejoin="round"/><path d="M51.134 55.609a1.2 1.2 0 0 1-1.2 1.2h-4.288a1.2 1.2 0 0 1-1.2-1.2v-5.488h6.688z" fill="#d6daff"/><path d="M32 88.5c0 2.131 2.16 1.93 4.825 1.93s4.824.2 4.824-1.93-2.16-3.86-4.824-3.86S32 86.368 32 88.5z" fill="#fff" stroke="#4550e5" stroke-linecap="round" stroke-linejoin="round"/><path d="M24.55 41.537a3.957 3.957 0 0 1 3.018-1.393 4 4 0 0 1 .985.123m-.913 7.152a3.973 3.973 0 0 1 2.96-2.732m1.584 6.778a3.97 3.97 0 0 1 2.9-3.175m2.945 5.743a3.964 3.964 0 0 1 .482-4.261m19.169 2.503a3.969 3.969 0 0 1-1.91 3.758" fill="none" stroke="#4550e5" stroke-linecap="round" stroke-linejoin="round"/><path d="M40.337 47.231a2.4 2.4 0 0 1-.947-1.91v-7.2a2.4 2.4 0 0 1 2.4-2.4h10.068z" fill="#fff"/><path d="M39.39 35.721h16.8v12h-16.8z" fill="none" stroke="#4550e5" stroke-linecap="round" stroke-linejoin="round"/><path d="M45.39 42.971a1.252 1.252 0 0 1-1.238-1.08 1.126 1.126 0 0 1-1.162 1.08 1.252 1.252 0 0 1-1.25-1.25 2.45 2.45 0 0 1 4.9 0 1.251 1.251 0 0 1-1.25 1.25zm7.2 0a1.252 1.252 0 0 1-1.2-.9 1.25 1.25 0 0 1-2.45-.35 2.45 2.45 0 0 1 4.9 0 1.252 1.252 0 0 1-1.25 1.25z" fill="#fff" stroke="#4550e5" stroke-linecap="round" stroke-linejoin="round"/><path d="M28.037 19.6a1.126 1.126 0 0 0 1.148 1.356 25.021 25.021 0 0 1 5.947.415c3.574.752 8.443 4.266 12.019 5.019a22.558 22.558 0 0 0 7.286-.016 1.22 1.22 0 0 0 1.012-.955L58.93 8.871a1.219 1.219 0 0 0-1.337-1.461 21.178 21.178 0 0 1-6.428-.1c-3.576-.753-8.445-4.267-12.019-5.019A25.721 25.721 0 0 0 32.6 1.91a1.123 1.123 0 0 0-1.03.891z" fill="#d6daff"/><path d="M30.774 6.59c6.546-.756 10.113 1.2 11.514 1.883 5.492 2.631 6.785 3.75 11.122 3.748a28.164 28.164 0 0 0 4.912-.455l.5-2.389a28.169 28.169 0 0 1-4.913.455c-4.31 0-5.6-1.1-11.121-3.748C41.39 5.4 37.828 3.445 31.277 4.2z" fill="#fff"/><path d="M57.435 15.983a28.283 28.283 0 0 1-4.913.455c-8.817 0-10.831-6.995-22.635-5.631l.5-2.389C36.935 7.662 40.5 9.618 41.9 10.3c5.491 2.632 6.785 3.75 11.121 3.749a28.183 28.183 0 0 0 4.913-.455z" fill="#fff"/><path d="M28.96 15.21c6.546-.756 10.113 1.2 11.514 1.883 5.492 2.631 6.785 3.75 11.122 3.748a28.2 28.2 0 0 0 4.913-.455l.5-2.389a28.169 28.169 0 0 1-4.913.455c-4.31 0-5.6-1.1-11.121-3.748-1.4-.682-4.963-2.639-11.514-1.883z" fill="#fff"/><path d="M55.621 24.6a28.279 28.279 0 0 1-4.912.455c-4.31 0-5.6-1.1-11.122-3.749-1.4-.682-4.963-2.639-11.514-1.882l.5-2.389c6.545-.756 10.113 1.2 11.514 1.882 5.491 2.632 6.785 3.75 11.121 3.749a28.169 28.169 0 0 0 4.913-.455zM48.663 6.48a14.248 14.248 0 0 0 2.5.831M39.145 2.293a19.163 19.163 0 0 1 4.114 1.566" fill="#fff"/><path d="M20.3 56.352a1 1 0 0 1-1.957-.412L29.614 2.389a1 1 0 1 1 1.957.412z" fill="#d6daff" stroke="#4550e5" stroke-linecap="round" stroke-linejoin="round"/><path d="m45 4.723-1.556 7.4a1.126 1.126 0 0 1-1.6.779 18.967 18.967 0 0 0-11.957-2.1l1.684-8A1.121 1.121 0 0 1 32.6 1.91a25.838 25.838 0 0 1 6.547.384A26.539 26.539 0 0 1 45 4.723z" fill="#fff"/><path d="M28.037 19.6a1.126 1.126 0 0 0 1.148 1.356 25.021 25.021 0 0 1 5.947.415c3.574.752 8.443 4.266 12.019 5.019a22.558 22.558 0 0 0 7.286-.016 1.22 1.22 0 0 0 1.012-.955L58.93 8.871a1.219 1.219 0 0 0-1.337-1.461 21.178 21.178 0 0 1-6.428-.1c-3.576-.753-8.445-4.267-12.019-5.019A25.721 25.721 0 0 0 32.6 1.91a1.123 1.123 0 0 0-1.03.891z" fill="none" stroke="#4550e5" stroke-linecap="round" stroke-linejoin="round"/><path d="M45 56.62a1.2 1.2 0 0 1-.553-1.011v-5.488h5.743z" fill="#fff"/><path d="M51.134 55.609a1.2 1.2 0 0 1-1.2 1.2h-4.288a1.2 1.2 0 0 1-1.2-1.2v-5.488h6.688z" fill="none" stroke="#4550e5" stroke-linecap="round" stroke-linejoin="round"/></svg>